<svg width="204" height="352" viewBox="0 0 204 352" fill="none" xmlns="http://www.w3.org/2000/svg">
<path d="M58.7777 323.786L47.1589 320.098C45.7109 313.858 45.807 307.359 47.4388 301.165C52.1067 311.55 65.8015 314.095 73.6044 322.385C76.0182 324.989 77.8156 328.103 78.8631 331.497C79.9107 334.891 80.1816 338.477 79.6559 341.989L82.1004 350.287C76.3912 349.799 70.8556 348.078 65.875 345.243C60.8944 342.408 56.5872 338.526 53.2502 333.865C51.404 331.232 49.8966 328.376 48.7636 325.366C53.7185 324.869 58.7777 323.786 58.7777 323.786Z" fill="#F2F2F2"/>
<path d="M138.464 342.732H129.598L125.381 308.512L138.465 308.513L138.464 342.732Z" fill="#A0616A"/>
<path d="M140.725 351.332L112.138 351.331V350.969C112.138 348.016 113.311 345.184 115.397 343.096C117.484 341.008 120.314 339.835 123.265 339.835H123.266L128.487 335.871L138.23 339.835L140.725 339.835L140.725 351.332Z" fill="#2F2E41"/>
<path d="M97.2757 342.732H88.4103L84.1928 308.512L97.2771 308.513L97.2757 342.732Z" fill="#A0616A"/>
<path d="M99.5366 351.332L70.9502 351.331V350.969C70.9504 348.016 72.1228 345.184 74.2094 343.096C76.296 341.008 79.1259 339.835 82.0768 339.835H82.0776L87.2992 335.871L97.0418 339.835L99.5371 339.835L99.5366 351.332Z" fill="#2F2E41"/>
<path d="M90.189 155.469L159.845 157.287L158.634 191.229C158.634 191.229 159.845 200.321 157.422 202.745C155 205.17 153.788 205.17 154.999 209.413C156.211 213.656 149.81 220.585 150.588 221.363C151.365 222.141 153.182 226.384 153.182 226.384L147.125 260.933C147.125 260.933 142.885 320.938 141.674 322.15C140.463 323.362 139.251 322.15 140.463 325.181C141.674 328.211 142.885 326.999 141.674 328.211C140.601 329.369 139.59 330.583 138.645 331.848H124.001C124.001 331.848 122.897 325.787 122.897 325.181C122.897 324.575 121.686 320.938 121.686 320.332C121.686 319.726 122.756 318.654 122.756 318.654C123.126 317.422 123.376 316.157 123.503 314.877C123.503 313.665 127.137 266.994 127.137 266.994L119.869 206.382L102.303 265.781C102.303 265.781 102.303 317.907 101.092 319.12C99.8803 320.332 99.8803 319.726 100.486 322.15C101.092 324.575 103.515 323.968 101.697 325.787C99.8803 327.605 99.2746 324.575 99.8803 327.605L100.486 330.636L82.3149 330.896C82.3149 330.896 79.892 325.787 81.1035 323.968C82.3149 322.15 82.2422 322.646 80.7643 319.671C79.2863 316.695 78.6806 316.089 79.2863 315.483C79.892 314.877 79.892 311.653 79.892 311.653L82.9206 253.659C82.9206 253.659 83.5262 192.442 83.5262 190.623C83.5719 189.688 83.3997 188.754 83.0231 187.896V185.428L85.3434 176.683L90.189 155.469Z" fill="#2F2E41"/>
<path d="M145.52 123.648L133.8 159.711L96.8519 158.499L108.206 123.648H145.52Z" fill="#2F2E41"/>
<path d="M96.5489 67.2787L117.749 59.3992L152.879 61.8236L161.014 65.6222C163.875 66.9583 166.204 69.2182 167.627 72.0387C169.05 74.8592 169.483 78.0764 168.858 81.1734L158.331 133.345L161.053 158.447C161.053 158.447 116.84 191.835 82.3148 181.531C82.3148 181.531 82.9205 171.834 83.5262 168.197C84.1319 164.56 85.3433 164.56 85.949 162.742C86.5547 160.923 87.7661 162.742 86.5547 159.105C85.3433 155.468 96.246 130.012 96.246 130.012L96.5489 67.2787Z" fill="#E6E6E6"/>
<path d="M130.058 71.8902L147.34 61.4414L141.674 51.2168H123.315L116.042 60.0334L130.058 71.8902Z" fill="#E6E6E6"/>
<path d="M136.004 157.802C136.991 157.859 137.979 157.699 138.897 157.333C139.816 156.966 140.643 156.403 141.321 155.682C141.998 154.961 142.509 154.101 142.818 153.161C143.127 152.221 143.227 151.225 143.109 150.242L164.722 139.717L153.976 133.346L135.1 144.317C133.464 144.624 131.996 145.521 130.977 146.838C129.957 148.154 129.455 149.8 129.566 151.462C129.678 153.124 130.395 154.687 131.581 155.856C132.768 157.025 134.341 157.717 136.004 157.802Z" fill="#A0616A"/>
<path d="M144.495 153.433L140.729 139.616L161.249 112.413C154.607 104.4 152.276 92.567 153.915 75.217C153.552 73.3458 153.912 71.4065 154.922 69.7904C155.932 68.1744 157.518 67.0019 159.358 66.5096C161.198 66.0173 163.156 66.2418 164.838 67.1379C166.519 68.034 167.798 69.5348 168.416 71.3376C173.06 84.8894 181.138 114.054 180.085 115.633C178.874 117.452 178.458 118.26 180.364 119.997C182.624 122.057 181.425 130.837 180.394 132.096C179.454 133.244 144.495 153.433 144.495 153.433Z" fill="#E6E6E6"/>
<path d="M59.3555 155.336C60.3444 155.333 61.3206 155.113 62.2151 154.692C63.1097 154.271 63.901 153.658 64.5332 152.898C65.1654 152.137 65.6232 151.247 65.8743 150.29C66.1255 149.334 66.1639 148.333 65.9868 147.36L86.9183 135.543L75.8026 129.837L57.6297 141.932C56.015 142.338 54.6053 143.322 53.6676 144.698C52.73 146.074 52.3296 147.746 52.5423 149.399C52.755 151.051 53.5661 152.568 54.8218 153.662C56.0776 154.757 57.6907 155.352 59.3555 155.336Z" fill="#A0616A"/>
<path d="M68.1407 149.763L66.4594 135.542L88.18 108.939C85.2032 95.3878 84.8382 90.7326 89.0251 73.8197C88.9429 71.9155 89.5857 70.0513 90.8237 68.6033C92.0618 67.1553 93.803 66.2313 95.6959 66.0178C97.5888 65.8042 99.4925 66.3171 101.023 67.4528C102.553 68.5886 103.596 70.2626 103.942 72.1372C106.53 86.2272 108.795 125.816 107.589 126.908C106.49 127.903 68.1407 149.763 68.1407 149.763Z" fill="#E6E6E6"/>
<path d="M132.286 44.8526C142.656 44.8526 151.062 36.4402 151.062 26.063C151.062 15.6858 142.656 7.27344 132.286 7.27344C121.915 7.27344 113.509 15.6858 113.509 26.063C113.509 36.4402 121.915 44.8526 132.286 44.8526Z" fill="#A0616A"/>
<path d="M112.401 12.4322C112.9 7.93849 119.387 3.44468 130.863 0.44884C142.34 -2.547 148.327 10.435 148.327 10.435C156.311 14.4295 151.571 35.6501 149.076 33.6529C149.051 33.6329 149.026 33.6134 149.001 33.5945C147.374 32.3955 146.008 30.8771 144.987 29.1321C143.967 27.3872 143.312 25.4522 143.064 23.4456L142.489 18.2743C139.861 20.2896 136.899 21.996 133.719 21.4888L137.611 17.6547C133.923 19.2605 130.234 20.8664 126.546 22.4722L130.209 17.4287L130.036 17.2584C128.321 18.7052 126.353 19.8206 124.231 20.5475C121.811 21.2416 118.911 20.8661 117.253 18.9703C116.806 18.4471 116.469 17.8397 116.261 17.184C113.25 19.2478 112.651 23.6667 112.651 23.6667C112.651 23.6667 111.902 16.926 112.401 12.4322Z" fill="#2F2E41"/>
<path d="M203.755 351.074C203.755 351.187 203.733 351.299 203.69 351.403C203.647 351.507 203.584 351.602 203.504 351.682C203.425 351.761 203.33 351.825 203.226 351.868C203.122 351.911 203.01 351.933 202.897 351.932H0.85778C0.630283 351.932 0.412123 351.842 0.251258 351.681C0.0903936 351.52 0 351.302 0 351.074C0 350.846 0.0903936 350.628 0.251258 350.467C0.412123 350.306 0.630283 350.216 0.85778 350.216H202.897C203.01 350.215 203.122 350.237 203.226 350.28C203.33 350.323 203.425 350.386 203.504 350.466C203.584 350.546 203.647 350.641 203.69 350.745C203.733 350.849 203.755 350.961 203.755 351.074Z" fill="#CCCCCC"/>
</svg>
