<svg xmlns="http://www.w3.org/2000/svg" viewBox="0 0 502 502"><defs><style>.cls-1{fill:#1b2d47;}.cls-2{fill:#fefebe;}.cls-3{fill:#fec72d;}</style></defs><title>Asset 6</title><g id="Layer_2" data-name="Layer 2"><g id="Layer_1-2" data-name="Layer 1"><rect class="cls-1" width="502" height="502" rx="59.78" ry="59.78"/><path class="cls-2" d="M437.81,271.72a156.11,156.11,0,0,1-62.65,13.11,160.9,160.9,0,0,1-63.12-13,156,156,0,0,1-30.31-17.28c-1.53-1.11-3-2.26-4.54-3.43A155.94,155.94,0,0,1,251,224.91c.72-.9,1.43-1.82,2.12-2.75a155.72,155.72,0,0,0,18.66-31.88,121.24,121.24,0,0,0,149.69,48.25A19.62,19.62,0,0,1,446,246.45,17.72,17.72,0,0,1,437.81,271.72Z"/><circle class="cls-2" cx="374.87" cy="126.7" r="51.71"/><path class="cls-3" d="M285.16,126.42a160.41,160.41,0,0,1-13.39,63.86,155.72,155.72,0,0,1-18.66,31.88c-.69.93-1.4,1.85-2.12,2.75a156.65,156.65,0,0,1-26.17,26q-3.7-2.9-7.54-5.57a155.8,155.8,0,0,0-27.35-15.12,121.24,121.24,0,0,0,49-150,19.76,19.76,0,0,1,8-24.67l.41-.24a17.17,17.17,0,0,1,24.47,7.84A156.33,156.33,0,0,1,285.16,126.42Z"/><circle class="cls-3" cx="127.02" cy="126.71" r="51.71"/><path class="cls-2" d="M251.05,277.13l-.36.46a157.73,157.73,0,0,0-20.41,34.21A120.38,120.38,0,0,0,190,271.69a122.63,122.63,0,0,0-33-13.78,120.17,120.17,0,0,0-76.52,5.53A19.55,19.55,0,0,1,56,255.52a17.69,17.69,0,0,1,8.15-25.25,156.39,156.39,0,0,1,62.68-13.11,159.16,159.16,0,0,1,39.33,5,157.53,157.53,0,0,1,23.73,8.1,155.8,155.8,0,0,1,27.35,15.12q3.84,2.67,7.54,5.57A156.42,156.42,0,0,1,251.05,277.13Z"/><circle class="cls-2" cx="127.13" cy="375.29" r="51.71"/><path class="cls-3" d="M312,271.79a120.19,120.19,0,0,0-40.16,39.93h0a121.46,121.46,0,0,0-8.78,110,19.75,19.75,0,0,1-8,24.66l-.42.26a17.15,17.15,0,0,1-24.45-7.83A157.06,157.06,0,0,1,217,375.54a159.38,159.38,0,0,1,13.33-63.74,157.73,157.73,0,0,1,20.41-34.21l.36-.46a156.4,156.4,0,0,1,26.14-26c1.5,1.17,3,2.32,4.54,3.43A156,156,0,0,0,312,271.79Z"/><circle class="cls-3" cx="374.98" cy="375.28" r="51.71"/></g></g></svg>